<svg xmlns="http://www.w3.org/2000/svg" viewBox="0 0 1200 400">
  <g fill="none" stroke="#C41E3A" stroke-width="12" stroke-linejoin="round" stroke-linecap="round">
    <rect x="10" y="10" width="1180" height="380"/>
    <line x1="10" y1="100" x2="1190" y2="100"/>
    <line x1="10" y1="200" x2="1190" y2="200"/>
    <line x1="10" y1="300" x2="1190" y2="300"/>
    <line x1="110" y1="10" x2="110" y2="390"/>
    <line x1="210" y1="10" x2="210" y2="390"/>
    <line x1="310" y1="10" x2="310" y2="390"/>
    <line x1="410" y1="10" x2="410" y2="390"/>
    <line x1="510" y1="10" x2="510" y2="390"/>
    <line x1="610" y1="10" x2="610" y2="390"/>
    <line x1="710" y1="10" x2="710" y2="390"/>
    <line x1="810" y1="10" x2="810" y2="390"/>
    <line x1="910" y1="10" x2="910" y2="390"/>
    <line x1="1010" y1="10" x2="1010" y2="390"/>
    <line x1="1110" y1="10" x2="1110" y2="390"/>
    <line x1="10" y1="10" x2="110" y2="100"/>
    <line x1="210" y1="10" x2="110" y2="100"/>
    <line x1="210" y1="10" x2="310" y2="100"/>
    <line x1="410" y1="10" x2="310" y2="100"/>
    <line x1="410" y1="10" x2="510" y2="100"/>
    <line x1="610" y1="10" x2="510" y2="100"/>
    <line x1="610" y1="10" x2="710" y2="100"/>
    <line x1="810" y1="10" x2="710" y2="100"/>
    <line x1="810" y1="10" x2="910" y2="100"/>
    <line x1="1010" y1="10" x2="910" y2="100"/>
    <line x1="1010" y1="10" x2="1110" y2="100"/>
    <line x1="1190" y1="10" x2="1110" y2="100"/>
    <line x1="110" y1="100" x2="10" y2="200"/>
    <line x1="110" y1="100" x2="210" y2="200"/>
    <line x1="310" y1="100" x2="210" y2="200"/>
    <line x1="310" y1="100" x2="410" y2="200"/>
    <line x1="510" y1="100" x2="410" y2="200"/>
    <line x1="510" y1="100" x2="610" y2="200"/>
    <line x1="710" y1="100" x2="610" y2="200"/>
    <line x1="710" y1="100" x2="810" y2="200"/>
    <line x1="910" y1="100" x2="810" y2="200"/>
    <line x1="910" y1="100" x2="1010" y2="200"/>
    <line x1="1110" y1="100" x2="1010" y2="200"/>
    <line x1="1110" y1="100" x2="1190" y2="200"/>
    <line x1="10" y1="200" x2="110" y2="300"/>
    <line x1="210" y1="200" x2="110" y2="300"/>
    <line x1="210" y1="200" x2="310" y2="300"/>
    <line x1="410" y1="200" x2="310" y2="300"/>
    <line x1="410" y1="200" x2="510" y2="300"/>
    <line x1="610" y1="200" x2="510" y2="300"/>
    <line x1="610" y1="200" x2="710" y2="300"/>
    <line x1="810" y1="200" x2="710" y2="300"/>
    <line x1="810" y1="200" x2="910" y2="300"/>
    <line x1="1010" y1="200" x2="910" y2="300"/>
    <line x1="1010" y1="200" x2="1110" y2="300"/>
    <line x1="1190" y1="200" x2="1110" y2="300"/>
    <line x1="110" y1="300" x2="10" y2="390"/>
    <line x1="110" y1="300" x2="210" y2="390"/>
    <line x1="310" y1="300" x2="210" y2="390"/>
    <line x1="310" y1="300" x2="410" y2="390"/>
    <line x1="510" y1="300" x2="410" y2="390"/>
    <line x1="510" y1="300" x2="610" y2="390"/>
    <line x1="710" y1="300" x2="610" y2="390"/>
    <line x1="710" y1="300" x2="810" y2="390"/>
    <line x1="910" y1="300" x2="810" y2="390"/>
    <line x1="910" y1="300" x2="1010" y2="390"/>
    <line x1="1110" y1="300" x2="1010" y2="390"/>
    <line x1="1110" y1="300" x2="1190" y2="390"/>
  </g>
  <g fill="#C41E3A" fill-rule="evenodd">
    <path d="M200 200m-54 0a54 54 0 1 1 108 0a54 54 0 1 1-108 0M184 184h32v32h-32z"/>
    <path d="M400 200m-54 0a54 54 0 1 1 108 0a54 54 0 1 1-108 0M384 184h32v32h-32z"/>
    <path d="M600 200m-54 0a54 54 0 1 1 108 0a54 54 0 1 1-108 0M584 184h32v32h-32z"/>
    <path d="M800 200m-54 0a54 54 0 1 1 108 0a54 54 0 1 1-108 0M784 184h32v32h-32z"/>
    <path d="M1000 200m-54 0a54 54 0 1 1 108 0a54 54 0 1 1-108 0M984 184h32v32h-32z"/>
  </g>
</svg>
